<svg xmlns="http://www.w3.org/2000/svg" xmlns:xlink="http://www.w3.org/1999/xlink" version="1.1" x="0px" y="0px" viewBox="0 0 100 125" style="enable-background:new 0 0 100 100;" xml:space="preserve"><path d="M92.7,32.8c-0.1-0.5-0.1-0.9-0.2-1.4c-0.1-0.5-0.1-0.9-0.2-1.4l-4.5-1c-0.3-1.1-0.7-2.1-1.1-3.1l3-3.6  c-0.4-0.9-0.8-1.6-1.4-2.4l-4.6,0.6c-0.6-0.9-1.3-1.8-2.1-2.6l1.6-4.3c-0.7-0.6-1.3-1.3-2-1.8L77,14c-0.9-0.6-1.9-1.2-2.9-1.7l0-4.6  c-0.8-0.4-1.7-0.7-2.6-1L68.4,10c-1.1-0.3-2.2-0.5-3.3-0.6l-1.6-4.3C62.6,5,61.7,5,60.8,5L59,9.3c-0.6-0.1-1.1,0-1.7,0.1  c-0.6,0.1-1.1,0.2-1.6,0.3l-3-3.5c-0.9,0.3-1.7,0.6-2.6,0.9l-0.2,4.6c-1,0.5-2,1-2.9,1.6l-4-2.3c-0.8,0.5-1.4,1.1-2.1,1.7l1.4,4.4  c-0.8,0.8-1.5,1.6-2.2,2.5l-4.6-0.8c-0.5,0.8-1,1.6-1.4,2.3l2.8,3.6c-0.5,1-0.9,2-1.2,3.1L31,28.8c-0.2,0.9-0.4,1.8-0.6,2.7l3.9,2.5  c-0.1,1.1-0.1,2.2,0,3.3l-4,2.4c0.1,0.5,0.1,0.9,0.2,1.4c0.1,0.5,0.1,0.9,0.2,1.4l4.5,1c0.3,1.1,0.7,2.1,1.1,3.1l-3,3.6  c0.4,0.9,0.8,1.6,1.4,2.4l4.6-0.6c0.6,0.9,1.3,1.8,2.1,2.6l-1.6,4.3c0.7,0.6,1.3,1.3,2,1.8l4.1-2.1c0.9,0.6,1.9,1.2,2.9,1.7l0,4.6  c0.8,0.4,1.7,0.7,2.6,1l3.1-3.4c1.1,0.3,2.2,0.5,3.3,0.6l1.6,4.3c0.9,0.1,1.8,0.1,2.8,0.1l1.8-4.3c0.6-0.1,1.1-0.1,1.7-0.2  c0.6-0.1,1.1-0.2,1.6-0.3l3,3.5c0.9-0.3,1.7-0.6,2.6-0.9l0.2-4.6c1-0.5,2-1,2.9-1.6l4,2.3c0.8-0.5,1.4-1.1,2.1-1.7l-1.4-4.4  c0.8-0.8,1.5-1.6,2.2-2.5l4.6,0.8c0.5-0.8,1-1.6,1.4-2.3l-2.8-3.6c0.5-1,0.9-2,1.2-3.1l4.6-0.9c0.2-0.9,0.4-1.8,0.6-2.7l-3.9-2.5  c0.1-1.1,0.1-2.2,0-3.3L92.7,32.8z M65,58.4c-12.2,1.9-23.7-6.5-25.6-18.7C37.4,27.5,45.8,16,58,14.1s23.7,6.5,25.6,18.7  S77.2,56.5,65,58.4z"/><g><path d="M45.3,75.6l3.8-1c0-0.2,0-0.4,0-0.5c0-1.1-0.1-2.1-0.3-3.1L45,70.5c-0.3-1.3-0.7-2.5-1.2-3.7l2.8-2.7c-0.6-1.1-1.3-2.1-2-3   L41,62.7c-0.9-1-1.8-1.8-2.9-2.6l1-3.8c-1-0.6-2.1-1.2-3.2-1.6l-2.4,3.2c-1.2-0.4-2.5-0.7-3.8-0.8l-1-3.9c-0.2,0-0.3,0-0.5,0   c-1.1,0-2.1,0.1-3.1,0.3l-0.5,3.9c-1.3,0.3-2.5,0.7-3.7,1.2l-2.7-2.8c-1.1,0.6-2.1,1.3-3,2l1.5,3.6c-1,0.9-1.8,1.8-2.6,2.9l-3.8-1   c-0.6,1-1.2,2.1-1.6,3.2l3.2,2.4c-0.4,1.2-0.7,2.5-0.8,3.8l-3.9,1c0,0.2,0,0.3,0,0.5c0,1.1,0.1,2.1,0.3,3.1l3.9,0.5   c0.3,1.3,0.7,2.5,1.2,3.7l-2.8,2.7c0.6,1.1,1.3,2.1,2,3l3.6-1.5c0.9,1,1.8,1.8,2.9,2.6l-1,3.8c1,0.6,2.1,1.2,3.2,1.6l2.4-3.2   c1.2,0.4,2.5,0.7,3.8,0.8l1,3.9c0.2,0,0.3,0,0.5,0c1.1,0,2.1-0.1,3.1-0.3l0.5-3.9c1.3-0.3,2.5-0.7,3.7-1.2l2.7,2.8   c1.1-0.6,2.1-1.3,3-2l-1.5-3.6c1-0.9,1.8-1.8,2.6-2.9l3.8,1c0.6-1,1.2-2.1,1.6-3.2l-3.2-2.4C44.9,78.2,45.1,76.9,45.3,75.6z    M28.2,86.6c-6.9,0-12.5-5.6-12.5-12.5s5.6-12.5,12.5-12.5s12.5,5.6,12.5,12.5S35.1,86.6,28.2,86.6z"/></g><text x="0" y="115" fill="#000000" font-size="5px" font-weight="bold" font-family="'Helvetica Neue', Helvetica, Arial-Unicode, Arial, Sans-serif">Created by Dolly Holmes</text><text x="0" y="120" fill="#000000" font-size="5px" font-weight="bold" font-family="'Helvetica Neue', Helvetica, Arial-Unicode, Arial, Sans-serif">from the Noun Project</text></svg>